<svg width="73" height="73" viewBox="0 0 73 73" fill="none" xmlns="http://www.w3.org/2000/svg">
<circle opacity="0.5" cx="36.5" cy="36.5" r="36.5" fill="#7D7D7D"/>
<circle cx="36.4998" cy="36.5" r="32.1634" fill="#003793"/>
<path d="M28.7882 37.5506L23.3599 42.0786L25.0871 44.3426L28.1713 41.827H28.2947V55.1594H31.7491V37.5506H28.7882Z" fill="white"/>
<path d="M42.2376 40.0661C44.2115 40.0661 46.0621 41.9528 46.0621 44.9714C45.7413 45.1978 45.3712 45.3739 44.9764 45.5249C44.2856 45.8267 43.3479 46.1034 42.2376 46.1034C40.1403 46.1034 38.7832 44.7199 38.7832 43.0848C38.7832 41.4497 40.1403 40.0661 42.2376 40.0661ZM41.4974 55.6625C46.1608 55.6625 49.6399 52.1407 49.6399 46.1034C49.6399 40.3429 46.4322 37.0475 42.2376 37.0475C37.9196 37.0475 35.2054 39.7894 35.2054 43.0848C35.2054 46.3801 37.9196 49.1221 42.2376 49.1221C43.3479 49.1221 44.2609 48.8202 44.9764 48.4932C45.3712 48.3171 45.7413 48.0907 46.0621 47.8643H46.1855C45.9141 50.6314 43.9648 52.6438 41.2506 52.6438C40.1896 52.6438 39.2767 52.3923 38.5611 52.0653C38.1417 51.9143 37.7716 51.7382 37.4261 51.5119L35.9457 53.9016C36.4145 54.2286 36.9573 54.5305 37.5248 54.7821C38.5118 55.2097 39.8935 55.6625 41.4974 55.6625Z" fill="white"/>
<path d="M49.2747 29.93H23.7247C22.9947 29.565 23.7247 28.105 24.4547 27.01C25.0387 26.134 31.2681 22.265 34.3097 20.44C34.7964 19.4667 35.5507 17.155 34.6747 15.695C33.7987 14.235 34.0664 12.6533 34.3097 12.045C35.2831 11.8017 37.4487 11.461 38.3247 12.045C39.2007 12.629 38.6897 14.7217 38.3247 15.695C38.0814 16.425 37.7407 18.323 38.3247 20.075C39.0547 22.265 46.3547 25.55 48.1797 27.01C49.6397 28.178 49.5181 29.4433 49.2747 29.93Z" fill="white"/>
<path d="M36.2262 30.049H49.3662C49.9834 25.7098 44.8666 26.1082 38.4162 20.194C38.0797 18.643 37.9894 18.0246 38.1424 16.3615C38.9178 14.3639 38.9431 13.5544 38.4161 12.2552C36.731 11.467 35.8485 11.5098 34.3604 12.2552C33.8619 13.7854 33.9772 14.6852 34.8574 16.3615C34.8939 17.8417 34.7705 18.6819 34.3604 20.194C27.91 26.1082 22.7932 25.7098 23.4104 30.049H36.5504" stroke="white"/>
<rect x="23.8599" y="32.0725" width="25.28" height="2.8325" rx="0.5" fill="white" stroke="white"/>
<path d="M26.8439 60.6375C25.2467 60.6375 23.9426 59.3826 23.8636 57.805H49.1361C49.0571 59.3826 47.753 60.6375 46.1558 60.6375H26.8439Z" fill="white" stroke="white"/>
</svg>
