<svg width="32" height="32" viewBox="0 0 32 32" fill="none" xmlns="http://www.w3.org/2000/svg">
<path d="M27.3112 4.68883C21.06 -1.56244 10.941 -1.56344 4.68886 4.68883C-1.56248 10.9401 -1.56342 21.059 4.68886 27.3112C10.94 33.5625 21.059 33.5634 27.3112 27.3112C33.5625 21.0599 33.5634 10.941 27.3112 4.68883ZM26.6426 25.0309C25.8952 24.3626 25.0957 23.7711 24.253 23.2614C24.81 21.3374 25.14 19.2202 25.218 17.0194H29.921C29.7083 19.9859 28.5685 22.7687 26.6426 25.0309ZM2.07898 17.0194H6.78196C6.85996 19.2202 7.18994 21.3374 7.74693 23.2614C6.90424 23.7711 6.10477 24.3626 5.35737 25.0309C3.43144 22.7687 2.29169 19.9859 2.07898 17.0194ZM5.35744 6.9691C6.10483 7.63743 6.9043 8.22888 7.74699 8.73859C7.19001 10.6626 6.86002 12.7798 6.78203 14.9806H2.07898C2.29169 12.0142 3.43144 9.23138 5.35744 6.9691ZM14.9807 8.94929C13.3181 8.83039 11.7151 8.42091 10.229 7.7454C11.0933 5.51978 12.6867 2.85039 14.9807 2.18887V8.94929ZM14.9807 10.9919V14.9807H8.82161C8.89218 13.119 9.15597 11.3312 9.59467 9.6955C11.2835 10.4338 13.0998 10.8747 14.9807 10.9919ZM14.9807 17.0194V21.0082C13.0998 21.1254 11.2835 21.5663 9.59467 22.3046C9.15597 20.6689 8.89218 18.8811 8.82161 17.0194H14.9807ZM14.9807 23.0508V29.8112C12.6868 29.1496 11.0934 26.4806 10.229 24.2547C11.7151 23.5792 13.3181 23.1697 14.9807 23.0508ZM17.0194 23.0508C18.6819 23.1697 20.2849 23.5792 21.771 24.2547C20.9066 26.4804 19.3134 29.1496 17.0194 29.8112V23.0508ZM17.0194 21.0082V17.0194H23.1784C23.1078 18.8811 22.8441 20.6689 22.4054 22.3046C20.7165 21.5663 18.9003 21.1254 17.0194 21.0082ZM17.0194 14.9807V10.9919C18.9003 10.8747 20.7165 10.4338 22.4054 9.6955C22.8441 11.3312 23.1078 13.119 23.1784 14.9807H17.0194ZM17.0194 8.94929V2.18893C19.3134 2.85046 20.9067 5.51984 21.771 7.74546C20.2849 8.42091 18.6819 8.83039 17.0194 8.94929ZM21.5981 3.20667C22.903 3.77807 24.1204 4.55288 25.2117 5.51422C24.6922 5.97222 24.1441 6.38751 23.5718 6.75889C23.0635 5.50042 22.4142 4.27742 21.5981 3.20667ZM8.42818 6.75889C7.85584 6.38751 7.30778 5.97222 6.78827 5.51422C7.87957 4.55288 9.09695 3.77807 10.4018 3.20667C9.58574 4.27754 8.93646 5.50054 8.42818 6.75889ZM8.42825 25.2412C8.93646 26.4996 9.58587 27.7227 10.4019 28.7934C9.09701 28.222 7.87963 27.4472 6.78833 26.4859C7.30779 26.0279 7.8559 25.6126 8.42825 25.2412ZM23.5718 25.2412C24.1441 25.6126 24.6922 26.0279 25.2117 26.4858C24.1204 27.4471 22.903 28.2219 21.5981 28.7934C22.4142 27.7227 23.0635 26.4997 23.5718 25.2412ZM25.2181 14.9807C25.1401 12.7799 24.8101 10.6626 24.2531 8.73865C25.0958 8.22894 25.8952 7.63749 26.6426 6.96916C28.5686 9.23138 29.7083 12.0142 29.921 14.9807H25.2181Z" fill="#00A73E"/>
</svg>
